<?xml version="1.0" encoding="utf-8"?>
<!-- Generator: Adobe Illustrator 24.0.0, SVG Export Plug-In . SVG Version: 6.00 Build 0)  -->
<svg version="1.1" id="Layer_1" xmlns="http://www.w3.org/2000/svg" xmlns:xlink="http://www.w3.org/1999/xlink" x="0px" y="0px"
	 viewBox="0 0 992.13 992.13" style="enable-background:new 0 0 992.13 992.13;" xml:space="preserve">
<style type="text/css">
	.st0{fill:#7252B5;}
	.st1{fill:#FFFFFF;}
	.st2{fill:#07060B;}
	.st3{fill:#FF4E54;}
</style>
<g>
	<path class="st0" d="M477.33,721.23c-2.18,5.42-4.37,10.84-6.39,16.31c-1.09,2.95-2.91,2.01-4.8,1.23
		c-10.06-4.11-18.69-10.2-25.82-18.43c-1.48-1.71-3.24-3.18-4.84-4.8c-0.76-0.77-2.07-1.47-1.34-2.8c0.58-1.07,1.81-0.39,2.51-0.47
		c8.9,1.55,17.59,2.99,26.24,4.62c3.84,0.73,7.68,0.45,11.52,0.5C477.18,717.44,478.55,718.2,477.33,721.23z M853.22,292.61
		c0.99,2.45-3.68,4.45-5.89,6.58c-6.69,6.46-14.7,11.32-21.66,17.46c-13.6,12.01-26.56,24.8-40.68,36.16
		c-17.03,13.69-33.18,28.45-50.66,41.58c-7.92,5.94-13.87,14.03-21.79,19.98c-4.6,3.46-4.86,3.45-6.32-2.24
		c-0.78-3.03-1.46-6.08-2.28-9.1c-0.62-2.28-1.88-4.03-4.57-3.39c-2.71,0.65-2.27,2.77-1.96,4.84c1.9,12.98,4.63,25.86,3.92,39.11
		c-0.53,9.84-0.81,19.7-1.09,29.55c-0.05,1.69-0.79,3.95,1.93,4.54c3,0.65,3.17-1.83,3.71-3.62c2.72-9.01,2.28-18.38,2.83-27.61
		c0.25-4.31,1.87-5.2,5.47-4.68c8.19,1.2,16.38,2.2,24.65,2.79c11.53,0.82,23,2.33,34.53,3.05c10.84,0.68,21.49,2.65,32.21,4.08
		c5.91,0.78,11.78,1.96,17.63,3.11c1.08,0.21,3.09,0.24,2.78,1.92c-0.3,1.64-1.89,2.44-3.71,2.09c-1.11-0.22-2.21-0.74-3.31-0.75
		c-1.75-0.01-3.99-0.97-5.03,1.2c-0.89,1.88,0.71,3.22,1.85,4.44c3.31,3.53,7.62,5.45,12,7.24c3.96,1.62,7.93,3.23,11.88,4.87
		c0.92,0.38,1.99,0.85,1.95,2.02c-0.05,1.2-1.23,1.39-2.13,1.78c-4.71,2.05-9.39,4.17-14.13,6.15c-3.4,1.42-5.3,3.6-5,7.52
		c0.23,2.99-0.01,6.01,0.09,9.01c0.12,3.4-1.24,4.47-4.46,3.19c-9.76-3.87-18.88-2.37-27.69,3.07c-3.63,2.24-7.68,3.77-11.52,5.67
		c-26,12.9-53.03,23.27-80.44,32.72c-3.76,1.29-5.59,0.02-5.49-3.91c0.08-3.12,0.51-6.25,1.02-9.34c0.32-1.96,0.71-4.09-1.55-4.69
		c-2.55-0.67-3.25,1.59-3.89,3.56c-4.34,13.44-8.75,26.82-14.43,39.8c-8.73,19.98-19.82,38.58-31.48,56.91
		c-2.12,3.33-3.73,4.17-7.18,1.36c-5.39-4.39-10.95-8.75-18.22-9.91c-1.89-0.3-3.94-1.1-4.88,1.05c-1.05,2.38,0.9,3.58,2.74,4.57
		c1.63,0.88,3.21,1.84,4.86,2.68c9.42,4.8,15.44,12.42,18.82,22.33c4.43,12.99,5.93,26.24,4.63,39.96
		c-0.94,9.85-1.76,19.68-6.46,28.55c-11.36,21.42-25.74,40.42-47.5,52.11c-11.47,6.16-24.05,9.06-36.91,2.76
		c-5.14-2.51-8.55-6.4-10.82-11.61c-6.34-14.52-12.39-29.19-21.19-42.48c-0.63-0.95-1.38-1.83-1.95-2.82
		c-6.32-10.97-15.89-12.32-27.28-9.9c-7.78,1.65-15.8,2.19-23.71,3.26c-6.31,0.86-12.13-0.98-17.95-3.03
		c-5.52-1.94-11.15-3.58-16.66-5.54c-26.89-9.55-51.84-22.56-72.8-42.24c-6.96-6.54-13.15-13.91-19.64-20.95
		c-1.43-1.55-2.98-3.3-5.01-1.65c-1.91,1.56-0.28,3.49,0.68,4.94c5.66,8.51,13.05,15.5,20.22,22.67c4.2,4.2,4.28,4.22-1.4,6.21
		c-5.94,2.09-12.03,3.58-18.26,4.39c-2.27,0.29-4.26,1.39-4.05,3.48c0.16,1.65,2.55,1.82,4.32,1.84c5.59,0.08,11.13-0.29,16.6-1.53
		c1.67-0.38,3.43-0.68,4.34,1.51c1.09,2.62,1.16,5.34,0.45,7.97c-0.22,0.82-1.53,0.06-2.24-0.3c-2.16-1.11-4.24-2.37-6.43-3.42
		c-3.27-1.56-5.6-0.69-6.49,2.9c-0.98,3.96-1.37,8.07-2.04,12.23c-2.38-0.28-3.49-2.2-4.81-3.81c-1.72-2.1-3.24-4.37-5.07-6.37
		c-3.12-3.4-5.54-3.5-8.59-0.19c-2.01,2.18-3.35,2.26-4.78-0.43c-1.14-2.14-2.43-4.21-3.72-6.27c-1.54-2.46-3.21-4.81,1.63-5.41
		c0.86-0.1,1.79-0.87,1.84-2.11c0.08-1.81-1.2-2.45-2.52-3.06c-6.77-3.14-12.93-7.27-19.04-11.51
		c-11.94-8.29-20.39-19.55-27.05-32.19c-3.17-6.01-3.51-12.87-4.32-19.53c-2.21-18.23,2.1-35.12,10.4-51.21
		c0.26-0.51,0.63-0.96,0.95-1.43c1.15-1.64,2.34-4.21,4.12-4.01c2.21,0.25,2.34,3.23,3.03,5.17c3.55,9.91,5.7,20.43,12.53,28.92
		c0.62,0.77,1.19,1.63,1.96,2.21c0.77,0.58,1.78,1.11,2.79,0.54c1.04-0.59,1.04-1.73,0.81-2.67c-0.43-1.8-0.96-3.59-1.68-5.29
		c-3.88-9.23-7.17-18.71-9.6-28.38c-3.04-12.11-4.72-24.51-5.98-36.96c-2.33-23.07,0.48-45.93,2.71-68.79
		c1.05-10.71,5.95-20.5,8.64-30.83c3.41-13.12,11.18-23.98,17.18-35.77c0.8-1.57,2.74-3.22,0.23-4.69
		c-2.21-1.29-3.28,0.55-4.28,2.22c-3.08,5.15-6.24,10.25-9.31,15.4c-1.58,2.65-2.9,2.76-4.6,0c-6.75-10.96-13-22.2-18.9-33.64
		c-6.09-11.79-11.5-23.93-18.38-35.32c-2.1-3.47-4.63-6.02-8.46-7.44c-4.01-1.48-7.88-3.32-11.85-4.91
		c-2.1-0.84-2.27-1.93-0.69-3.42c1.87-1.76,3.75-3.52,5.66-5.25c4.28-3.9,4.48-8.34,0.6-12.72c-3.89-4.4-8.24-8.3-12.72-12.08
		c-0.85-0.72-2.17-1.25-1.93-2.52c0.22-1.15,1.65-0.99,2.54-1.26c2.73-0.81,5.52-1.35,8.4-1.33c4.01,0.03,8.02,0.06,12.02-0.03
		c5.19-0.11,5.74-1.16,3.47-5.83c-1.45-2.98-1.96-6.23-2.37-9.51c-0.14-1.12-0.9-2.33,0.1-3.19c1.07-0.93,2.18,0.11,3.14,0.62
		c7.83,4.13,15.59,8.41,23.47,12.46c22.88,11.79,44.59,25.55,66.26,39.38c0.72,0.46,1.42,0.96,2.17,1.37
		c3.57,1.96,4.68,4.52,2.64,8.38c-1.39,2.63-2.21,5.56-3.38,8.32c-0.86,2.03-0.28,3.78,1.27,4.97c1.61,1.24,3.47,0.38,4.7-0.76
		c1.76-1.63,3.15-3.66,4.7-5.52c11.52-13.78,25.83-24.11,41.08-33.28c0.61-0.37,1.23-0.74,1.81-1.15c1.39-0.98,3.24-1.87,2.07-4.02
		c-1.08-1.98-2.8-2.03-4.77-1.15c-13.22,5.93-25.65,13.15-37.25,22.66c-2.04-4.83-1.45-9.8-1.9-14.54
		c-1.51-16.2-1.86-32.53-3.82-48.66c-2.27-18.72-3.05-37.54-4.8-56.29c-0.73-7.82-0.42-15.71-0.85-23.57
		c-0.61-11.13,0.21-22.31-0.91-33.44c-0.18-1.81-0.68-4.39,0.95-5.22c1.91-0.96,3.52,1.3,4.95,2.51
		c13.84,11.73,27.55,23.62,40.7,36.15c20.06,19.13,40.27,38.11,60.41,57.17c7.26,6.88,14.5,13.78,21.71,20.73
		c3.1,2.98,6.48,4.37,10.88,3.27c2.88-0.72,5.94-0.7,8.89-1.17c1.99-0.32,4.13-0.76,4.07-3.48c-0.06-2.7-2.2-3.18-4.2-3.32
		c-2.85-0.21-5.72-0.12-8.58-0.05c-1.85,0.05-2.69-0.76-2.5-2.55c0.59-5.67,1.04-11.37,1.92-17c0.4-2.61,1.88-1.14,2.95-0.19
		c4.67,4.21,9.29,8.48,14.03,12.61c3.87,3.38,7.8,6.71,11.87,9.84c5.11,3.93,7.43,3.02,8.49-3.18c0.49-2.86,1.61-5.47,2.63-8.13
		c0.4-1.06,0.62-2.4,2.1-2.27c1.17,0.1,1.54,1.29,1.75,2.21c1.19,5.16,4.5,9.14,7.26,13.44c1.51,2.35,3.23,3.62,5.99,2.12
		c19.3-10.49,40.47-16.07,60.99-23.4c12.1-4.32,24.33-8.16,36.63-11.79c1.12-0.33,2.57-1.47,3.51-0.08
		c0.69,1.01-0.44,2.14-0.94,3.12c-3.7,7.39-7.38,14.79-12.73,21.2c-3.61,4.33-4.5,10.12-7.9,14.64c-2.89,3.85-5.84,7.71-7.52,12.39
		c-1.64,4.59-0.71,6.71,4.21,6.74c5.55,0.03,11.12-0.43,16.65-1.01c8.22-0.86,16.41-2.03,24.62-3.02c0.91-0.11,2.14-0.64,2.68,0.55
		c0.55,1.21-0.76,1.71-1.4,2.35c-5.19,5.27-8.34,12.49-15.43,16c-1.2,0.59-1.81,2.08-1.24,3.76c0.54,1.59,1.45,2.32,3.1,2.42
		c0.99,0.06,1.95,0.57,2.93,0.58c20.87,0.18,41.73,0.42,62.6,0.4c8.28-0.01,16.56-0.93,24.84-0.91c26.03,0.06,52-2.77,78.03-1.64
		c9.41,0.41,18.88-0.06,28.23,1.42C847.29,289.36,852.07,289.76,853.22,292.61z M382.62,409.17c0.94,9.08-0.02,17.37,3.92,24.93
		c10.41,19.99,28.33,27.98,49.37,30.71c5.19,0.67,10.56-0.13,15.82,0.18c1.92,0.11,3.76,1.49,5.45-0.49
		c1.69-1.98,0.36-3.76-0.36-5.58c-5.41-13.81-11.25-27.47-16.15-41.46c-6.88-19.66-13.02-39.57-19.58-59.34
		c-1.52-4.59-2.67-9.36-5.26-13.54c-0.93-1.5-1.85-3-4.04-2.13c-2.11,0.84-2,2.64-1.73,4.33c0.27,1.67,0.65,3.4,1.38,4.91
		c1.96,4.06,0.5,7.09-2.47,9.89c-3.84,3.63-7.57,7.39-10.74,11.65C390.03,384.28,384.41,396.43,382.62,409.17z M608.81,731.41
		c-2.46,0.68-4.87,1.6-7.25,2.54c-2.95,1.16-4.15,0.27-4.43-2.91c-0.32-3.68-0.95-7.36-2.9-10.63c-2.11-3.53-4.37-4.05-7.63-1.57
		c-2.38,1.82-4.66,3.78-6.91,5.75c-6.74,5.9-6.73,5.91-11.1-1.89c-2.49-4.45-6.58-5.34-10.27-1.95
		c-10.43,9.61-15.86,21.68-17.09,35.72c0,1.14,0.02,2.29-0.01,3.43c-0.04,1.69,0.27,3.34,2.22,3.55c1.76,0.18,2.28-1.38,2.68-2.8
		c0.74-2.6,1.52-5.2,2.24-7.81c2.23-8.18,5.37-15.92,10.32-22.89c1.75-2.46,2.99-2.9,4.4,0.11c1.03,2.19,2.15,4.34,3.18,6.53
		c2.79,6,3.84,6.26,8.89,2.01c3.82-3.2,7.01-7.1,11.4-9.68c1.96-1.15,2.72-1.05,3.02,1.31c0.43,3.38,1.11,6.72,1.6,10.1
		c0.78,5.44,2.76,6.31,7.35,3.22c2.33-1.56,5.24-4.76,7.27-3.53c2.61,1.59-0.22,5.08-0.5,7.76c-0.01,0.14-0.12,0.26-0.15,0.4
		c-0.31,1.58-0.67,3.44,1.2,4.07c1.98,0.66,3.77-0.37,4.47-2.33c1.54-4.29,3.14-8.59,4.18-13.01
		C616.06,732.4,613.38,730.15,608.81,731.41z M630.19,500.55c-0.14-0.1-0.29-0.2-0.46-0.27c-2.11-0.95-3.66,1.3-4.91,2.58
		c-1.06,1.1-2.22,2.12-3.36,3.14c-2.16,1.91-4.42,3.7-6.76,5.38c-4.69,3.37-9.64,6.22-14.81,8.56c-0.03,0.01-0.05,0.02-0.08,0.04
		c-0.12,0.06-0.25,0.1-0.37,0.16c-9.12,4.07-18.91,6.66-29.16,8.09c-22.27,3.11-44.46,0.27-66.58-2.72
		c-4.01-0.54-7.89-1.51-11.73-2.66c-6-1.8-11.87-4.03-17.89-5.76c-8.4-2.42-16.9-4.63-25.22-7.33c-6.45-2.1-12.8-4.48-18.9-7.49
		c-0.02-0.01-0.03-0.01-0.07-0.03c-19.72-9.75-38.75-21.6-53.36-38.3c-8.56-9.78-15.61-21.22-20.71-33.18
		c-1.27-2.98-2.39-6.03-3.32-9.14c-0.48-1.59-0.98-3.27-2.95-3.05c-0.14,0.02-0.27,0.04-0.4,0.07c-1.6,0.37-1.92,1.93-1.89,3.36
		c0.02,1.03,0.27,2.09,0.45,3.1c0.35,1.95,0.86,3.83,1.37,5.74c0.25,0.93,0.48,1.87,0.62,2.82c0.14,0.98,0.08,1.91,0.08,2.88
		c-0.03,0.23-0.06,0.46-0.1,0.69c-2.42,12.91-3.17,26.1-2.18,39.2c0.85,11.19,2.64,22.07,7.03,32.47
		c8.55,20.29,25.47,36.88,43.13,49.53c19.23,13.77,40.95,23.5,63.74,29.66c15.37,4.15,31.83,7,47.78,6.28
		c9.15-0.41,18.17-2.09,27.11-4c8.06-1.72,15.9-4.25,23.04-8.44c7.31-4.29,13.97-9.56,21.17-14.01c0.25-0.26,10.8-11.44,17.84-19.78
		c0.63-0.9,1.25-1.81,1.87-2.72c2.45-3.63,4.81-7.31,7.23-10.96c2.49-3.75,4.13-8.05,6.67-11.75c2.39-3.49,5.77-6.12,8.76-9.06
		c2.41-2.37,4.59-4.96,6.65-7.64c0.6-0.78,1.21-1.6,1.47-2.55C631.33,502.39,631.07,501.22,630.19,500.55z M638.85,402.31
		c-1.35-1.95-3.83-1.19-5.81-0.07c-22.45,12.78-45.36,24.78-66.99,38.95c-17.8,11.66-35.42,23.58-52.79,35.86
		c-1.87,1.32-3.85,2.6-2.58,5.07c1.22,2.37,3.61,2.12,5.64,1.05c2.35-1.24,3.97-0.5,5.68,1.17c13.1,12.73,29.66,16.21,47.14,17.61
		c6.06-0.42,12.21-1.23,17.76-3.97c15.4-7.6,26.79-19.01,33.39-35.18c5.28-12.94,8.1-26.1,6.16-40.07
		c-0.78-5.61,0.34-10.19,6.2-12.57c1.41-0.58,2.54-1.83,3.86-2.68C638.48,406.23,640.32,404.45,638.85,402.31z"/>
	<path class="st1" d="M381.45,481.55c-2.67,9.18-5.24,18.38-7.39,27.68c-0.82,3.57-1.59,7.15-2.27,10.75
		c-0.01,0.05-0.04,0.09-0.06,0.13c-0.08,0.12-0.21,0.23-0.34,0.34c-0.05,0.05-0.11,0.09-0.15,0.14
		c-12.2-10.55-22.92-59.03-15.76-72.83c0,0,0,0,0,0c0,0,0,0,0,0c0.32,0.51,0.66,1.02,0.99,1.52c2.75,4.17,5.77,8.06,8.95,11.8
		c4,4.7,8.25,9.17,12.48,13.63c0.89,0.94,1.79,1.89,2.68,2.84c1.04,1.1,1.25,2.38,0.94,3.7
		C381.49,481.37,381.48,481.46,381.45,481.55z M501.46,532.93c-0.8-0.9-2.15-1.37-3.99-1.79c-19.62-4.47-39.14-9.28-57.79-17
		c-0.83-0.34-1.54-0.55-2.17-0.62c-2.16-0.23-3.09,1.69-3.55,3.46c-3.73,14.5-7.56,28.97-11.5,43.41c-0.89,3.28,0.1,5.21,3.06,6.47
		c3.82,1.62,7.58,3.39,11.4,4.99c1.56,0.65,3.13,1.27,4.73,1.84c9.16,3.25,18.4,6.23,27.82,8.46c5.65,1.34,11.37,2.42,17.18,3.13
		c0.9,0.08,1.74,0.13,2.51,0.1c0.03,0,0.07,0,0.1,0c0.03,0,0.06-0.01,0.09-0.01c2.35-0.16,4.03-1.2,4.63-4.8
		c1.23-7.43,2.54-14.86,3.93-22.27c1.29-6.89,2.66-13.77,4.12-20.62C502.53,535.31,502.3,533.89,501.46,532.93z M427.13,514.57
		c0.49-1.86,0.42-3.31-0.28-4.5c-0.24-0.41-0.56-0.79-0.96-1.14c-0.5-0.44-1.12-0.83-1.87-1.2c-9.94-4.77-19.4-10.34-28.23-16.96
		c-0.67-0.5-1.34-0.99-2-1.5c-0.91-0.71-1.94-1.26-2.92-1.89c-0.1-0.07-0.21-0.13-0.31-0.2c-1.59-1.09-2.5-0.76-3.07,1.14
		c-0.51,1.69-1.02,3.37-1.53,5.06c-1.05,3.47-2.09,6.93-3.05,10.42c-1.01,3.65-1.94,7.31-2.72,11.01
		c-0.84,3.99-1.51,8.02-1.91,12.11c-0.36,3.6,2.11,5.82,4.33,7.92c9.44,8.93,19.43,17.21,30.11,24.65c0.2,0.14,0.38,0.25,0.56,0.36
		c0.03,0.02,0.08,0.05,0.11,0.07c0.01,0,0.01,0,0.02,0.01c0.2,0.11,0.38,0.19,0.54,0.25c0.92,0.32,1.38-0.16,1.74-1.37
		c0.04-0.13,0.08-0.25,0.12-0.4c0.64-2.5,1.28-5,1.92-7.5c2.07-8.09,4.15-16.18,6.25-24.26
		C425.04,522.61,426.07,518.59,427.13,514.57z M430.45,424.76c0.04,1.91,1.02,3.03,2.84,3.05c2.05,0.02,3.19-1.34,3.05-3.3
		c-0.12-1.72-1.25-2.82-2.67-2.85C431.31,421.82,430.41,422.83,430.45,424.76z M560.87,536.35c-0.79-0.52-1.96-0.64-3.46-0.47
		c-1.16,0.13-2.27,0.36-3.44,0.42c-13.04,0.69-26.29-0.93-39.27-1.88c-2.14-0.16-3.97,0.33-4.67,2.56
		c-0.55,1.74-0.69,3.71-1.02,5.51c-2.47,13.57-5.71,26.98-8.85,40.41c-0.14,0.61-0.19,1.13-0.15,1.58c0.12,1.33,1.05,1.96,2.75,2.11
		c0,0,0.03,0,0.04,0c0.42,0.01,8.36,0.1,18.26-0.93c6.49-0.68,13.83-1.85,20.41-3.83c0.05-0.01,0.09-0.03,0.14-0.04
		c3.84-1.17,7.84-2.65,11.19-4.89c1.9-1.27,2.83-2.87,3.18-5.09c0.41-2.59,0.85-5.17,1.31-7.75c1.18-6.74,2.53-13.45,3.87-20.16
		c0.22-1.13,0.81-2.85,0.91-4.42C562.13,538.19,561.89,537.02,560.87,536.35z M603.03,527.18c-7.22,2.89-14.46,4.9-21.85,6.29
		c-8.44,1.6-10.25,1.91-11.73,7.05c-0.4,1.38-0.77,3.09-1.24,5.28c-1.75,8.15-3.38,16.32-5.18,25.04c0,0,0,0,0,0c0,0,0,0,0,0
		c6.43-3.3,11.81-7.44,16.53-12.1C588.95,549.48,595.76,538.15,603.03,527.18C603.03,527.19,603.03,527.19,603.03,527.18
		C603.02,527.19,603.02,527.19,603.03,527.18z M551.36,462.73c0.03,1.69,0.81,2.95,2.74,2.99c1.9,0.04,2.85-0.89,2.71-2.74
		c0.01-0.1,0.03-0.19,0.03-0.29c0-0.04-0.01-0.08-0.01-0.12c0.06-1.61-0.35-2.79-2.34-2.9c-2.16-0.11-3.15,1.01-3.13,3.01
		c0,0,0,0,0,0.01c0,0,0,0,0,0.01C551.35,462.71,551.36,462.72,551.36,462.73z"/>
	<path class="st2" d="M865.9,280.2c-9.79-2.28-19.82-2.93-29.8-3.26c-28.28-0.93-56.6-2.12-84.86-0.14
		c-26.3,1.84-52.62,0.79-78.92,1.7c-1.18,0.04-2.89,0.73-3.46-0.64c-0.53-1.26,1-2.21,1.74-3.19c3.26-4.35,6.35-8.8,9.06-13.52
		c1.42-2.48,2.3-4.94,0.3-7.52c-1.9-2.46-4.24-3.41-7.48-2.99c-11.05,1.42-22.13,2.64-33.21,3.8c-1.91,0.2-4.56,1.66-5.65-0.1
		c-1.22-1.95,1.18-3.88,2.28-5.6c8.22-12.89,15.39-26.34,21.32-40.42c3.46-8.21-0.34-12.87-9.02-11.58
		c-1.13,0.17-2.29,0.19-3.4,0.47c-33.13,8.17-65.67,18.11-96.7,32.5c-3.68,1.71-5.55,1.43-7.1-2.47c-2.02-5.08-5.06-9.6-9.39-13.07
		c-4.14-3.32-8.25-2.87-11.6,1.21c-0.99,1.21-1.84,2.55-2.64,3.9c-3.94,6.68-3.96,6.72-9.52,1.19
		c-5.88-5.85-11.61-11.84-17.55-17.62c-2.75-2.68-6.22-4.62-10.08-2.99c-3.62,1.52-4.64,5.09-5.05,8.83
		c-0.42,3.83-1.09,7.63-1.64,11.45c-0.22,1.48,0.18,3.58-1.49,4.03c-1.27,0.34-2.26-1.46-3.26-2.43
		c-12.21-11.82-24.23-23.84-36.65-35.44c-16.19-15.12-32.8-29.78-49.01-44.88c-10.46-9.75-20.85-19.49-33.02-27.17
		c-6.63-4.18-13.31-1.55-14.67,6.2c-0.22,1.26-0.18,2.57-0.19,3.85c-0.22,23.6,0.03,47.2,1.84,70.75c1.24,16.1,1.82,32.24,3.88,48.3
		c2.06,16.01,3.14,32.15,4.59,48.24c0.12,1.34,0.81,3.2-0.53,3.98c-1.49,0.87-2.93-0.47-4.24-1.34c-0.83-0.55-1.68-1.08-2.54-1.6
		c-15.12-9.15-29.5-19.57-45.56-27.12c-11.1-5.22-22.45-9.9-32.72-16.73c-2.37-1.58-4.92-2.9-7.4-4.31
		c-3.13-1.79-6.48-2.76-9.74-0.74c-3.46,2.14-3.84,5.79-3.57,9.49c0.14,2,0.39,3.99,0.64,5.97c0.33,2.66-0.67,3.82-3.48,4.08
		c-6.1,0.56-12.11,1.46-17.84,4.06c-8.08,3.67-9.38,11.71-2.47,17.16c4.38,3.45,8.74,6.93,13.2,10.27c2.08,1.56,2.35,2.96,0.48,4.86
		c-2.51,2.54-4.96,5.14-7.36,7.79c-4.19,4.64-2.94,11.2,2.68,13.79c5.43,2.5,10.93,4.86,16.42,7.23c2.57,1.11,4.68,2.74,6.12,5.15
		c2.27,3.8,4.49,7.62,6.76,11.42c8.41,14.09,13.69,29.83,23.11,43.41c2.66,3.84,4.52,8.24,6.76,12.38c1.75,3.23,1.7,6.4,0.42,9.87
		c-8.7,23.62-12.87,48.2-14.69,73.18c-1.18,16.18,0.37,32.31,2.79,48.3c0.7,4.65-0.18,8.4-2.76,12.05
		c-1.57,2.22-3.12,4.45-4.55,6.75c-14.11,22.74-17.78,47.19-11.71,73.15c4.84,20.68,16.45,36.59,34.74,47.24
		c5.26,3.06,8.82,6.8,11.28,12.21c3.51,7.71,7.85,14.93,14.82,20.15c2.95,2.21,6.12,3.27,9.55,1.39c2.16-1.18,3.36-0.24,4.78,1.21
		c3.36,3.42,7.21,6.08,12.13,6.73c4.73,0.63,8.12-1.72,8.76-6.03c1.04-6.95,1.04-6.95,7.87-5.46c7.28,1.59,11.36-2.2,10.35-9.61
		c-0.21-1.56-0.54-3.1-0.71-4.66c-0.15-1.37-1-3.12,0.33-4c1.34-0.88,2.75,0.43,3.83,1.26c12.99,10.02,27.96,16.51,42.47,23.8
		c2.23,1.12,4.17,2.54,5.5,4.64c3.88,6.09,9.02,11.04,14.03,16.14c8.69,8.84,17.96,16.68,30.06,20.54c2.94,0.94,5.71,1.59,8.77,0.84
		c4.85-1.2,7.32-4.56,8.78-9.04c2.17-6.63,3.85-13.47,7.78-19.38c2.68-4.03,10.95-6.36,13.56-3.45c4.83,5.4,10.19,10.45,13.12,17.36
		c3.9,9.18,8.49,18.1,11.9,27.46c10,27.45,44.33,30.57,63.1,19.45c18-10.67,32.62-24.86,44.63-41.89c4.14-5.87,7.36-12.1,9.88-18.87
		c8.51-22.81,10.28-45.94,3.39-69.32c-2.21-7.5-2.03-13.02,2.7-19.95c14.24-20.88,26.15-43.18,35.75-66.62
		c1.74-4.24,4.52-6.38,8.74-7.84c17.89-6.2,36.16-11.4,53.42-19.33c16.44-7.55,33.39-14.02,49.29-22.75
		c4.45-2.44,8.77-3.01,13.37-0.25c2.17,1.3,4.67,2.1,7.08,2.94c6,2.08,10.23-0.56,10.93-6.81c0.27-2.41,0.88-4.95,0.42-7.25
		c-1.7-8.53,2.69-11.98,10.18-13.84c5.09-1.27,10.05-3.27,13.82-7.31c3.94-4.23,3.74-7.66-1.03-11.01
		c-4.08-2.87-8.38-5.44-12.57-8.16c-1.03-0.67-2.07-0.96-0.95-2.83c4.4-7.36,2.55-12.32-5.52-15.14
		c-10.16-3.55-20.78-5.13-31.37-6.55c-23.52-3.17-47.2-4.86-70.83-6.95c-6.34-0.56-12.64-1.54-19.41-3.35
		c1.52-1.43,2.61-2.49,3.74-3.5c23.64-21.15,47.98-41.47,72.62-61.45c21.51-17.45,41.14-37.05,62.44-54.76
		c6.47-5.38,13.27-10.45,18.7-16.99C875.03,286.96,873.48,281.97,865.9,280.2z M477.33,721.23c-2.18,5.42-4.37,10.84-6.39,16.31
		c-1.09,2.95-2.91,2.01-4.8,1.23c-10.06-4.11-18.69-10.2-25.82-18.43c-1.48-1.71-3.24-3.18-4.84-4.8c-0.76-0.77-2.07-1.47-1.34-2.8
		c0.58-1.07,1.81-0.39,2.51-0.47c8.9,1.55,17.59,2.99,26.24,4.62c3.84,0.73,7.68,0.45,11.52,0.5
		C477.18,717.44,478.55,718.2,477.33,721.23z M847.33,299.18c-6.69,6.46-14.7,11.32-21.66,17.46c-13.6,12.01-26.56,24.8-40.68,36.16
		c-17.03,13.69-33.18,28.45-50.66,41.58c-7.92,5.94-13.87,14.03-21.79,19.98c-4.6,3.46-4.86,3.45-6.32-2.24
		c-0.78-3.03-1.46-6.08-2.28-9.1c-0.62-2.28-1.88-4.03-4.57-3.39c-2.71,0.65-2.27,2.77-1.96,4.84c1.9,12.98,4.63,25.86,3.92,39.11
		c-0.53,9.84-0.81,19.7-1.09,29.55c-0.05,1.69-0.79,3.95,1.93,4.54c3,0.65,3.17-1.83,3.71-3.62c2.72-9.01,2.28-18.38,2.83-27.61
		c0.25-4.31,1.87-5.2,5.47-4.68c8.19,1.2,16.38,2.2,24.65,2.79c11.53,0.82,23,2.33,34.53,3.05c10.84,0.68,21.49,2.65,32.21,4.08
		c5.91,0.78,11.78,1.96,17.63,3.11c1.08,0.21,3.09,0.24,2.78,1.92c-0.3,1.64-1.89,2.44-3.71,2.09c-1.11-0.22-2.21-0.74-3.31-0.75
		c-1.75-0.01-3.99-0.97-5.03,1.2c-0.89,1.88,0.71,3.22,1.85,4.44c3.31,3.53,7.62,5.45,12,7.24c3.96,1.62,7.93,3.23,11.88,4.87
		c0.92,0.38,1.99,0.85,1.95,2.02c-0.05,1.2-1.23,1.39-2.13,1.78c-4.71,2.05-9.39,4.17-14.13,6.15c-3.4,1.42-5.3,3.6-5,7.52
		c0.23,2.99-0.01,6.01,0.09,9.01c0.12,3.4-1.24,4.47-4.46,3.19c-9.76-3.87-18.88-2.37-27.69,3.07c-3.63,2.24-7.68,3.77-11.52,5.67
		c-26,12.9-53.03,23.27-80.44,32.72c-3.76,1.29-5.59,0.02-5.49-3.91c0.08-3.12,0.51-6.25,1.02-9.34c0.32-1.96,0.71-4.09-1.55-4.69
		c-2.55-0.67-3.25,1.59-3.89,3.56c-4.34,13.44-8.75,26.82-14.43,39.8c-8.73,19.98-19.82,38.58-31.48,56.91
		c-2.12,3.33-3.73,4.17-7.18,1.36c-5.39-4.39-10.95-8.75-18.22-9.91c-1.89-0.3-3.94-1.1-4.88,1.05c-1.05,2.38,0.9,3.58,2.74,4.57
		c1.63,0.88,3.21,1.84,4.86,2.68c9.42,4.8,15.44,12.42,18.82,22.33c4.43,12.99,5.93,26.24,4.63,39.96
		c-0.94,9.85-1.76,19.68-6.46,28.55c-11.36,21.42-25.74,40.42-47.5,52.11c-11.47,6.16-24.05,9.06-36.91,2.76
		c-5.14-2.51-8.55-6.4-10.82-11.61c-6.34-14.52-12.39-29.19-21.19-42.48c-0.63-0.95-1.38-1.83-1.95-2.82
		c-6.32-10.97-15.89-12.32-27.28-9.9c-7.78,1.65-15.8,2.19-23.71,3.26c-6.31,0.86-12.13-0.98-17.95-3.03
		c-5.52-1.94-11.15-3.58-16.66-5.54c-26.89-9.55-51.84-22.56-72.8-42.24c-6.96-6.54-13.15-13.91-19.64-20.95
		c-1.43-1.55-2.98-3.3-5.01-1.65c-1.91,1.56-0.28,3.49,0.68,4.94c5.66,8.51,13.05,15.5,20.22,22.67c4.2,4.2,4.28,4.22-1.4,6.21
		c-5.94,2.09-12.03,3.58-18.26,4.39c-2.27,0.29-4.26,1.39-4.05,3.48c0.16,1.65,2.55,1.82,4.32,1.84c5.59,0.08,11.13-0.29,16.6-1.53
		c1.67-0.38,3.43-0.68,4.34,1.51c1.09,2.62,1.16,5.34,0.45,7.97c-0.22,0.82-1.53,0.06-2.24-0.3c-2.16-1.11-4.24-2.37-6.43-3.42
		c-3.27-1.56-5.6-0.69-6.49,2.9c-0.98,3.96-1.37,8.07-2.04,12.23c-2.38-0.28-3.49-2.2-4.81-3.81c-1.72-2.1-3.24-4.37-5.07-6.37
		c-3.12-3.4-5.54-3.5-8.59-0.19c-2.01,2.18-3.35,2.26-4.78-0.43c-1.14-2.14-2.43-4.21-3.72-6.27c-1.54-2.46-3.21-4.81,1.63-5.41
		c0.86-0.1,1.79-0.87,1.84-2.11c0.08-1.81-1.2-2.45-2.52-3.06c-6.77-3.14-12.93-7.27-19.04-11.51
		c-11.94-8.29-20.39-19.55-27.05-32.19c-3.17-6.01-3.51-12.87-4.32-19.53c-2.21-18.23,2.1-35.12,10.4-51.21
		c0.26-0.51,0.63-0.96,0.95-1.43c1.15-1.64,2.34-4.21,4.12-4.01c2.21,0.25,2.34,3.23,3.03,5.17c3.55,9.91,5.7,20.43,12.53,28.92
		c0.62,0.77,1.19,1.63,1.96,2.21c0.77,0.58,1.78,1.11,2.79,0.54c1.04-0.59,1.04-1.73,0.81-2.67c-0.43-1.8-0.96-3.59-1.68-5.29
		c-3.88-9.23-7.17-18.71-9.6-28.38c-3.04-12.11-4.72-24.51-5.98-36.96c-2.33-23.07,0.48-45.93,2.71-68.79
		c1.05-10.71,5.95-20.5,8.64-30.83c3.41-13.12,11.18-23.98,17.18-35.77c0.8-1.57,2.74-3.22,0.23-4.69
		c-2.21-1.29-3.28,0.55-4.28,2.22c-3.08,5.15-6.24,10.25-9.31,15.4c-1.58,2.65-2.9,2.76-4.6,0c-6.75-10.96-13-22.2-18.9-33.64
		c-6.09-11.79-11.5-23.93-18.38-35.32c-2.1-3.47-4.63-6.02-8.46-7.44c-4.01-1.48-7.88-3.32-11.85-4.91
		c-2.1-0.84-2.27-1.93-0.69-3.42c1.87-1.76,3.75-3.52,5.66-5.25c4.28-3.9,4.48-8.34,0.6-12.72c-3.89-4.4-8.24-8.3-12.72-12.08
		c-0.85-0.72-2.17-1.25-1.93-2.52c0.22-1.15,1.65-0.99,2.54-1.26c2.73-0.81,5.52-1.35,8.4-1.33c4.01,0.03,8.02,0.06,12.02-0.03
		c5.19-0.11,5.74-1.16,3.47-5.83c-1.45-2.98-1.96-6.23-2.37-9.51c-0.14-1.12-0.9-2.33,0.1-3.19c1.07-0.93,2.18,0.11,3.14,0.62
		c7.83,4.13,15.59,8.41,23.47,12.46c22.88,11.79,44.59,25.55,66.26,39.38c0.72,0.46,1.42,0.96,2.17,1.37
		c3.57,1.96,4.68,4.52,2.64,8.38c-1.39,2.63-2.21,5.56-3.38,8.32c-0.86,2.03-0.28,3.78,1.27,4.97c1.61,1.24,3.47,0.38,4.7-0.76
		c1.76-1.63,3.15-3.66,4.7-5.52c11.52-13.78,25.83-24.11,41.08-33.28c0.61-0.37,1.23-0.74,1.81-1.15c1.39-0.98,3.24-1.87,2.07-4.02
		c-1.08-1.98-2.8-2.03-4.77-1.15c-13.22,5.93-25.65,13.15-37.25,22.66c-2.04-4.83-1.45-9.8-1.9-14.54
		c-1.51-16.2-1.86-32.53-3.82-48.66c-2.27-18.72-3.05-37.54-4.8-56.29c-0.73-7.82-0.42-15.71-0.85-23.57
		c-0.61-11.13,0.21-22.31-0.91-33.44c-0.18-1.81-0.68-4.39,0.95-5.22c1.91-0.96,3.52,1.3,4.95,2.51
		c13.84,11.73,27.55,23.62,40.7,36.15c20.06,19.13,40.27,38.11,60.41,57.17c7.26,6.88,14.5,13.78,21.71,20.73
		c3.1,2.98,6.48,4.37,10.88,3.27c2.88-0.72,5.94-0.7,8.89-1.17c1.99-0.32,4.13-0.76,4.07-3.48c-0.06-2.7-2.2-3.18-4.2-3.32
		c-2.85-0.21-5.72-0.12-8.58-0.05c-1.85,0.05-2.69-0.76-2.5-2.55c0.59-5.67,1.04-11.37,1.92-17c0.4-2.61,1.88-1.14,2.95-0.19
		c4.67,4.21,9.29,8.48,14.03,12.61c3.87,3.38,7.8,6.71,11.87,9.84c5.11,3.93,7.43,3.02,8.49-3.18c0.49-2.86,1.61-5.47,2.63-8.13
		c0.4-1.06,0.62-2.4,2.1-2.27c1.17,0.1,1.54,1.29,1.75,2.21c1.19,5.16,4.5,9.14,7.26,13.44c1.51,2.35,3.23,3.62,5.99,2.12
		c19.3-10.49,40.47-16.07,60.99-23.4c12.1-4.32,24.33-8.16,36.63-11.79c1.12-0.33,2.57-1.47,3.51-0.08
		c0.69,1.01-0.44,2.14-0.94,3.12c-3.7,7.39-7.38,14.79-12.73,21.2c-3.61,4.33-4.5,10.12-7.9,14.64c-2.89,3.85-5.84,7.71-7.52,12.39
		c-1.64,4.59-0.71,6.71,4.21,6.74c5.55,0.03,11.12-0.43,16.65-1.01c8.22-0.86,16.41-2.03,24.62-3.02c0.91-0.11,2.14-0.64,2.68,0.55
		c0.55,1.21-0.76,1.71-1.4,2.35c-5.19,5.27-8.34,12.49-15.43,16c-1.2,0.59-1.81,2.08-1.24,3.76c0.54,1.59,1.45,2.32,3.1,2.42
		c0.99,0.06,1.95,0.57,2.93,0.58c20.87,0.18,41.73,0.42,62.6,0.4c8.28-0.01,16.56-0.93,24.84-0.91c26.03,0.06,52-2.77,78.03-1.64
		c9.41,0.41,18.88-0.06,28.23,1.42c3.46,0.55,8.24,0.95,9.39,3.8C854.21,295.06,849.54,297.06,847.33,299.18z M630.19,500.55
		c-0.14-0.1-0.29-0.2-0.46-0.27c-2.11-0.95-3.66,1.3-4.91,2.58c-1.06,1.1-2.22,2.12-3.36,3.14c-2.16,1.91-4.42,3.7-6.76,5.38
		c-4.69,3.37-9.64,6.22-14.81,8.56c-0.03,0.01-0.05,0.02-0.08,0.04c-0.12,0.06-0.25,0.1-0.37,0.16c-9.12,4.07-18.91,6.66-29.16,8.09
		c-22.27,3.11-44.46,0.27-66.58-2.72c-4.01-0.54-7.89-1.51-11.73-2.66c-6-1.8-11.87-4.03-17.89-5.76c-8.4-2.42-16.9-4.63-25.22-7.33
		c-6.45-2.1-12.8-4.48-18.9-7.49c-0.02-0.01-0.03-0.01-0.07-0.03c-19.72-9.75-38.75-21.6-53.36-38.3
		c-8.56-9.78-15.61-21.22-20.71-33.18c-1.27-2.98-2.39-6.03-3.32-9.14c-0.48-1.59-0.98-3.27-2.95-3.05
		c-0.14,0.02-0.27,0.04-0.4,0.07c-1.6,0.37-1.92,1.93-1.89,3.36c0.02,1.03,0.27,2.09,0.45,3.1c0.35,1.95,0.86,3.83,1.37,5.74
		c0.25,0.93,0.48,1.87,0.62,2.82c0.14,0.98,0.08,1.91,0.08,2.88c-0.03,0.23-0.06,0.46-0.1,0.69c-2.42,12.91-3.17,26.1-2.18,39.2
		c0.85,11.19,2.64,22.07,7.03,32.47c8.55,20.29,25.47,36.88,43.13,49.53c19.23,13.77,40.95,23.5,63.74,29.66
		c15.37,4.15,31.83,7,47.78,6.28c9.15-0.41,18.17-2.09,27.11-4c8.06-1.72,15.9-4.25,23.04-8.44c7.31-4.29,13.97-9.56,21.17-14.01
		c0.25-0.26,10.8-11.44,17.84-19.78c0.63-0.9,1.25-1.81,1.87-2.72c2.45-3.63,4.81-7.31,7.23-10.96c2.49-3.75,4.13-8.05,6.67-11.75
		c2.39-3.49,5.77-6.12,8.76-9.06c2.41-2.37,4.59-4.96,6.65-7.64c0.6-0.78,1.21-1.6,1.47-2.55
		C631.33,502.39,631.07,501.22,630.19,500.55z M374.06,509.24c-0.82,3.57-1.59,7.15-2.27,10.75c-0.01,0.05-0.04,0.09-0.06,0.13
		c-0.08,0.12-0.21,0.23-0.34,0.34c-0.05,0.05-0.11,0.09-0.15,0.14c-12.2-10.55-22.92-59.03-15.76-72.83c0,0,0,0,0,0c0,0,0,0,0,0
		c0.32,0.51,0.66,1.02,0.99,1.52c2.75,4.17,5.77,8.06,8.95,11.8c4,4.7,8.25,9.17,12.48,13.63c0.89,0.94,1.79,1.89,2.68,2.84
		c1.04,1.1,1.25,2.38,0.94,3.7c-0.02,0.09-0.04,0.18-0.07,0.27C378.78,490.73,376.21,499.93,374.06,509.24z M415.82,558.4
		c-0.04,0.15-0.08,0.27-0.12,0.4c-0.37,1.21-0.82,1.7-1.74,1.37c-0.16-0.06-0.35-0.14-0.54-0.25c-0.01,0-0.01,0-0.02-0.01
		c-0.03-0.02-0.08-0.05-0.11-0.07c-0.18-0.1-0.36-0.21-0.56-0.36c-10.68-7.44-20.67-15.72-30.11-24.65
		c-2.22-2.1-4.69-4.32-4.33-7.92c0.4-4.1,1.07-8.13,1.91-12.11c0.78-3.7,1.71-7.37,2.72-11.01c0.97-3.49,2-6.95,3.05-10.42
		c0.51-1.69,1.02-3.37,1.53-5.06c0.57-1.9,1.48-2.23,3.07-1.14c0.1,0.07,0.21,0.14,0.31,0.2c0.97,0.63,2,1.18,2.92,1.89
		c0.66,0.51,1.33,1,2,1.5c8.83,6.61,18.29,12.19,28.23,16.96c0.75,0.36,1.37,0.76,1.87,1.2c0.4,0.35,0.72,0.73,0.96,1.14
		c0.7,1.18,0.76,2.64,0.28,4.5c-1.06,4.02-2.1,8.05-3.14,12.07c-2.1,8.08-4.18,16.17-6.25,24.26
		C417.1,553.4,416.46,555.9,415.82,558.4z M493.97,580.56c-0.6,3.61-2.29,4.65-4.63,4.8c-0.03,0-0.06,0.01-0.09,0.01
		c-0.03,0-0.06,0-0.1,0c-0.77,0.04-1.61-0.01-2.51-0.1c-5.81-0.71-11.52-1.78-17.18-3.13c-9.42-2.24-18.66-5.22-27.82-8.46
		c-1.59-0.57-3.17-1.19-4.73-1.84c-3.83-1.59-7.59-3.37-11.4-4.99c-2.95-1.25-3.95-3.19-3.06-6.47c3.94-14.44,7.77-28.91,11.5-43.41
		c0.46-1.77,1.39-3.69,3.55-3.46c0.62,0.07,1.34,0.27,2.17,0.62c18.66,7.72,38.18,12.53,57.79,17c1.84,0.42,3.19,0.89,3.99,1.79
		c0.85,0.95,1.07,2.38,0.56,4.74c-1.46,6.85-2.83,13.73-4.12,20.62C496.51,565.7,495.2,573.13,493.97,580.56z M562.05,539.46
		c-0.1,1.57-0.69,3.3-0.91,4.42c-1.34,6.71-2.68,13.42-3.87,20.16c-0.45,2.58-0.9,5.16-1.31,7.75c-0.35,2.22-1.28,3.82-3.18,5.09
		c-3.35,2.24-7.35,3.72-11.19,4.89c-0.05,0.01-0.09,0.03-0.14,0.04c-6.58,1.98-13.91,3.15-20.41,3.83
		c-9.9,1.03-17.85,0.93-18.26,0.93c-0.01,0-0.04,0-0.04,0c-1.7-0.15-2.63-0.78-2.75-2.11c-0.04-0.44,0.01-0.97,0.15-1.58
		c3.14-13.43,6.38-26.84,8.85-40.41c0.33-1.8,0.47-3.77,1.02-5.51c0.71-2.23,2.53-2.72,4.67-2.56c12.98,0.96,26.23,2.58,39.27,1.88
		c1.17-0.06,2.28-0.29,3.44-0.42c1.5-0.17,2.67-0.05,3.46,0.47C561.89,537.02,562.13,538.19,562.05,539.46z M579.57,558.74
		c-4.73,4.66-10.1,8.8-16.53,12.1c0,0,0,0,0,0c0,0,0,0,0,0c1.8-8.71,3.43-16.89,5.18-25.04c0.47-2.19,0.84-3.9,1.24-5.28
		c1.48-5.14,3.29-5.45,11.73-7.05c7.4-1.39,14.63-3.4,21.85-6.29c0,0,0,0,0,0c0,0,0,0,0.01,0
		C595.76,538.15,588.95,549.48,579.57,558.74z M633.05,402.24c-22.45,12.78-45.36,24.78-66.99,38.95
		c-17.8,11.66-35.42,23.58-52.79,35.86c-1.87,1.32-3.85,2.6-2.58,5.07c1.22,2.37,3.61,2.12,5.64,1.05c2.35-1.24,3.97-0.5,5.68,1.17
		c13.1,12.73,29.66,16.21,47.14,17.61c6.06-0.42,12.21-1.23,17.76-3.97c15.4-7.6,26.79-19.01,33.39-35.18
		c5.28-12.94,8.1-26.1,6.16-40.07c-0.78-5.61,0.34-10.19,6.2-12.57c1.41-0.58,2.54-1.83,3.86-2.68c1.95-1.25,3.8-3.03,2.33-5.17
		C637.51,400.36,635.02,401.12,633.05,402.24z M551.35,462.68c-0.02-2,0.97-3.12,3.13-3.01c1.99,0.1,2.4,1.28,2.34,2.9
		c0,0.04,0.01,0.08,0.01,0.12c0,0.1-0.02,0.19-0.03,0.29c0.14,1.85-0.81,2.78-2.71,2.74c-1.93-0.04-2.71-1.3-2.74-2.99
		c0-0.01,0-0.02,0-0.04C551.35,462.69,551.35,462.69,551.35,462.68C551.35,462.69,551.35,462.68,551.35,462.68z M614.98,455.14
		c-4.94,18.2-17.02,29.54-33.54,37.03c-1.14,0.52-2.41,0.85-3.65,1.02c-1.26,0.17-2.57,0.04-3.86,0.04
		c-9.41,2.29-18.42,0.31-27.34-2.55c-6.75-2.17-12.85-5.44-18.03-10.37c-1.98-1.89-2.49-3.21,0.27-4.9
		c5.36-3.29,10.56-6.83,15.82-10.28c0.31-0.21,0.62-0.39,0.91-0.56l3.5-2.38c0.02,5.6,2.27,10.13,5.03,10.13
		c2.78,0,5.04-4.58,5.04-10.22c0-2.28-0.37-4.39-1-6.09l7.8-5.31c0.28-0.2,0.56-0.39,0.85-0.58l0.1-0.07l0,0
		c0.33-0.22,0.67-0.43,1.02-0.64c15.33-9.16,30.53-18.53,45.83-27.74c4.31-2.6,5.48-2.02,5.49,3.53
		C619.23,435.34,617.66,445.27,614.98,455.14z M435.91,464.81c5.19,0.67,10.56-0.13,15.82,0.18c1.92,0.11,3.76,1.49,5.45-0.49
		c1.69-1.98,0.36-3.76-0.36-5.58c-5.41-13.81-11.25-27.47-16.15-41.46c-6.88-19.66-13.02-39.57-19.58-59.34
		c-1.52-4.59-2.67-9.36-5.26-13.54c-0.93-1.5-1.85-3-4.04-2.13c-2.11,0.84-2,2.64-1.73,4.33c0.27,1.67,0.65,3.4,1.38,4.91
		c1.96,4.06,0.5,7.09-2.47,9.89c-3.84,3.63-7.57,7.39-10.74,11.65c-8.21,11.05-13.83,23.2-15.62,35.94
		c0.94,9.08-0.02,17.37,3.92,24.93C396.94,454.09,414.87,462.09,435.91,464.81z M436.34,424.5c0.14,1.97-1,3.33-3.05,3.3
		c-1.81-0.02-2.8-1.14-2.84-3.05c-0.04-1.93,0.85-2.94,3.21-3.1C435.09,421.68,436.22,422.78,436.34,424.5z M391.27,405.7
		c2.9-14.88,10.52-26.59,20.83-37.04c1.89-1.92,3.61-2.62,4.63,0.66c4.42,14.13,10.05,27.86,13.88,42.2l1.53,4.41
		c-2.36,0.9-4.15,5.32-4.15,10.66c0,5.98,2.25,10.84,5.04,10.84c1.97,0,3.67-2.44,4.5-5.99l0.74,2.13
		c2.97,6.97,5.77,13.35,8.41,19.79c1.07,2.61,0.11,3.8-2.87,4.09c-17.52,1.7-32.1-4.98-43.74-17.13
		C391.06,430.9,388.67,418.99,391.27,405.7z M608.81,731.41c4.57-1.26,7.25,0.99,6.18,5.51c-1.04,4.42-2.64,8.72-4.18,13.01
		c-0.7,1.96-2.49,2.99-4.47,2.33c-1.87-0.63-1.51-2.49-1.2-4.07c0.03-0.14,0.13-0.26,0.15-0.4c0.28-2.69,3.11-6.18,0.5-7.76
		c-2.03-1.23-4.94,1.96-7.27,3.53c-4.59,3.08-6.57,2.22-7.35-3.22c-0.48-3.37-1.16-6.72-1.6-10.1c-0.3-2.36-1.06-2.46-3.02-1.31
		c-4.38,2.58-7.58,6.48-11.4,9.68c-5.06,4.25-6.1,3.99-8.89-2.01c-1.02-2.2-2.14-4.34-3.18-6.53c-1.42-3.01-2.66-2.57-4.4-0.11
		c-4.95,6.97-8.09,14.72-10.32,22.89c-0.71,2.61-1.5,5.2-2.24,7.81c-0.4,1.42-0.92,2.98-2.68,2.8c-1.96-0.2-2.26-1.85-2.22-3.55
		c0.03-1.14,0.01-2.29,0.01-3.43c1.22-14.04,6.65-26.11,17.09-35.72c3.69-3.4,7.78-2.5,10.27,1.95c4.37,7.8,4.36,7.79,11.1,1.89
		c2.25-1.97,4.53-3.93,6.91-5.75c3.26-2.48,5.52-1.96,7.63,1.57c1.96,3.27,2.59,6.95,2.9,10.63c0.27,3.18,1.48,4.07,4.43,2.91
		C603.93,733.01,606.34,732.09,608.81,731.41z"/>
	<path class="st3" d="M619.22,425.19c0,10.15-1.56,20.08-4.24,29.95c-4.94,18.2-17.02,29.54-33.54,37.03
		c-1.14,0.52-2.41,0.85-3.65,1.02c-1.26,0.17-2.57,0.04-3.86,0.04c-9.41,2.29-18.42,0.31-27.34-2.55
		c-6.75-2.17-12.85-5.44-18.03-10.37c-1.98-1.89-2.49-3.21,0.27-4.9c5.36-3.29,10.56-6.83,15.82-10.28
		c0.31-0.21,0.62-0.39,0.91-0.56l3.5-2.38c0.02,5.6,2.27,10.13,5.03,10.13c2.78,0,5.04-4.58,5.04-10.22c0-2.28-0.37-4.39-1-6.09
		l7.8-5.31c0.28-0.2,0.56-0.39,0.85-0.58l0.1-0.07l0,0c0.33-0.22,0.67-0.43,1.02-0.64c15.33-9.16,30.53-18.53,45.83-27.74
		C618.05,419.07,619.22,419.64,619.22,425.19z M443.8,457.44c2.98-0.29,3.94-1.48,2.87-4.09c-2.64-6.44-5.44-12.82-8.41-19.79
		l-0.74-2.13c-0.83,3.55-2.53,5.99-4.5,5.99c-2.78,0-5.04-4.85-5.04-10.84c0-5.34,1.79-9.76,4.15-10.66l-1.53-4.41
		c-3.82-14.33-9.46-28.06-13.88-42.2c-1.03-3.28-2.74-2.58-4.63-0.66c-10.31,10.45-17.93,22.16-20.83,37.04
		c-2.59,13.29-0.2,25.2,8.8,34.6C411.7,452.46,426.29,459.14,443.8,457.44z"/>
</g>
</svg>
